<svg xmlns="http://www.w3.org/2000/svg" width="24" height="24" viewBox="0 0 13 12" fill="none">
  <path d="M5.93266 9.60059H2.99809C2.0034 9.60059 1.19828 10.4057 1.19828 11.4004C1.19815 11.7727 0.860332 12.0653 0.473671 11.9873C0.187333 11.9299 -0.00314397 11.6658 3.8147e-05 11.373C0.0144066 9.72907 1.35287 8.40039 3.00004 8.40039H4.34476L5.93266 9.60059ZM8.99027 6.50586C9.0747 6.2466 9.44203 6.24656 9.52641 6.50586H9.52445L10.0977 8.26758H11.9502C12.2224 8.26758 12.3365 8.6166 12.1153 8.77734L10.6162 9.86523L11.1895 11.627C11.2738 11.8863 10.9765 12.103 10.7569 11.9424L9.25785 10.8535L7.75785 11.9424C7.53665 12.1028 7.24091 11.8863 7.32523 11.627L7.89848 9.86523L6.39945 8.77734C6.17827 8.61663 6.29243 8.26768 6.56449 8.26758H8.41703L8.99027 6.50586ZM5.39945 0C7.38708 0 8.99979 1.61204 9.00004 3.59961C9.00004 5.58739 7.38723 7.2002 5.39945 7.2002C3.41175 7.20011 1.79984 5.58734 1.79984 3.59961C1.80009 1.61209 3.4119 8.31798e-05 5.39945 0ZM5.39945 1.2002C4.07396 1.20028 3.00029 2.27416 3.00004 3.59961C3.00004 4.92527 4.07381 5.99992 5.39945 6C6.72517 6 7.79984 4.92532 7.79984 3.59961C7.79959 2.27411 6.72501 1.2002 5.39945 1.2002Z" fill="currentColor"/>
</svg>
