<svg xmlns="http://www.w3.org/2000/svg" width="16" height="16" viewBox="0 0 16 16" fill="none">
  <path d="M8 0.5C9.74234 0.5 11.4264 1.12774 12.7442 2.26758C14.062 3.40746 14.9259 4.98379 15.1768 6.70801L15.2188 6.99316H13.7061L13.6709 6.78516C13.4431 5.44635 12.7486 4.23161 11.711 3.35547C10.6731 2.47925 9.35827 1.99805 8 1.99805C6.64182 1.99811 5.32782 2.47931 4.29004 3.35547C3.25229 4.23161 2.55792 5.44628 2.33007 6.78516L2.29394 6.99316H0.782227L0.824219 6.70801C1.07515 4.98389 1.9382 3.40745 3.25586 2.26758C4.57357 1.12776 6.25771 0.500069 8 0.5Z" fill="currentColor" stroke="currentColor" stroke-width="0.5"/>
</svg>
