<svg xmlns="http://www.w3.org/2000/svg" width="24" height="24" viewBox="0 0 13 15" fill="none">
  <path d="M6.59467 0.21967C6.88756 -0.0732233 7.36244 -0.0732233 7.65533 0.21967L9.90533 2.46967C10.1982 2.76256 10.1982 3.23744 9.90533 3.53033L7.65533 5.78033C7.36244 6.07322 6.88756 6.07322 6.59467 5.78033C6.30178 5.48744 6.30178 5.01256 6.59467 4.71967L7.56434 3.75H6.375C3.71421 3.75 1.5 5.96421 1.5 8.625C1.5 11.2858 3.71421 13.5 6.375 13.5C9.03579 13.5 11.25 11.2858 11.25 8.625C11.25 8.21079 11.5858 7.875 12 7.875C12.4142 7.875 12.75 8.21079 12.75 8.625C12.75 12.1142 9.86421 15 6.375 15C2.88579 15 0 12.1142 0 8.625C0 5.13579 2.88579 2.25 6.375 2.25H7.56434L6.59467 1.28033C6.30178 0.987437 6.30178 0.512563 6.59467 0.21967Z" fill="currentColor"/>
</svg>
